<svg viewBox="0 0 106.67 106.67" xmlns="http://www.w3.org/2000/svg">
  <g transform="matrix(1.6666660308840315,0,0,1.6666660308840315,-18.99995231630237,-13.666651407883425)" fill="#a9d2ff">
    <path d="M15.41 19.4999C14.7565 20.1702 14.905 21.3585 15.7071 21.8764C16.3012 22.303 18.0242 22.3639 27.5894 22.4249C33.7089 22.4858 38.8183 22.5772 38.9074 22.6991C39.0559 22.8514 38.5806 29.0061 38.3133 30.4381C38.1647 31.1389 31.4215 37.5982 24.5892 43.631C18.1133 49.3287 16.8359 51.0654 18.2618 52.2537C19.1827 53.0458 19.5986 52.9544 20.9353 51.7052C21.5889 51.0958 22.183 50.6388 22.2424 50.6998C22.3018 50.7607 23.0444 54.1732 23.8762 58.2864C26.3121 70.3825 26.6983 71.327 28.9262 70.9309C29.5203 70.8395 34.9268 70.7176 40.9571 70.6567C53.5821 70.5653 52.78 70.7786 53.1662 67.5184C53.2553 66.5434 53.6118 64.502 53.9385 63.0091C54.2356 61.4856 54.8297 58.0732 55.2456 55.3919C55.6615 52.7107 56.0774 50.1208 56.1665 49.6638L56.3447 48.7802L56.9685 49.3896C58.2162 50.5474 58.9291 50.7607 59.7312 50.2123C60.9194 49.4201 60.6521 48.4146 58.7509 46.3427C57.8003 45.3373 55.8397 43.4482 54.3544 42.199C52.8988 40.9193 50.76 38.9998 49.6015 37.9029C48.4727 36.8365 46.215 34.8561 44.5812 33.485L41.6403 31.017L41.8483 27.8788C42.1453 23.278 42.2344 22.9428 43.2147 22.9428C44.5812 22.9428 49.75 24.4053 51.7403 25.3499C55.3347 27.0866 56.1071 27.8178 57.5627 30.9561C58.9588 33.9725 59.9094 35.0389 62.88 36.8975C65.6129 38.5732 67.6924 39.1826 70.7224 39.2131C73.9603 39.2436 75 38.7561 75 37.2326C75 36.0748 72.5938 32.3881 70.5441 30.4381C68.0785 28.092 63.89 26.2944 60.8303 26.2944C59.4341 26.2944 59.0182 26.142 57.6815 25.1061C56.82 24.4663 55.5427 23.6132 54.8 23.2171L53.4632 22.4858L59.7609 22.3335C63.8603 22.2421 66.1774 22.0593 66.3853 21.846C66.9794 21.2366 66.5932 19.8046 65.7912 19.378C64.6327 18.7991 16.0042 18.921 15.41 19.4999ZM43.0365 45.9162C44.1356 46.6474 44.7891 48.7802 44.6406 51.0958C44.5515 52.7412 44.3733 53.2896 43.6306 54.2341C41.6106 56.8239 39.5312 57.5247 37.333 56.3974C35.2536 55.331 34.7486 54.4169 34.7486 51.7662C34.7486 49.8771 34.8674 49.3896 35.5803 48.2927C36.0259 47.592 36.9468 46.5865 37.6597 46.0685C38.7886 45.2154 39.0559 45.124 40.6303 45.2763C41.5809 45.3677 42.6503 45.642 43.0365 45.9162Z"/>
  </g>
</svg>
